<svg width="10" height="14" viewBox="0 0 10 14" fill="none" xmlns="http://www.w3.org/2000/svg">
<g clip-path="url(#clip0_44_2010)">
<path d="M5 0C3.91146 0 2.98438 0.730078 2.64323 1.75H1.66667C0.747396 1.75 0 2.53477 0 3.5V12.25C0 13.2152 0.747396 14 1.66667 14H8.33333C9.2526 14 10 13.2152 10 12.25V3.5C10 2.53477 9.2526 1.75 8.33333 1.75H7.35677C7.01562 0.730078 6.08854 0 5 0ZM5 1.75C5.22101 1.75 5.43297 1.84219 5.58926 2.00628C5.74554 2.17038 5.83333 2.39294 5.83333 2.625C5.83333 2.85706 5.74554 3.07962 5.58926 3.24372C5.43297 3.40781 5.22101 3.5 5 3.5C4.77899 3.5 4.56702 3.40781 4.41074 3.24372C4.25446 3.07962 4.16667 2.85706 4.16667 2.625C4.16667 2.39294 4.25446 2.17038 4.41074 2.00628C4.56702 1.84219 4.77899 1.75 5 1.75ZM7.94271 7.46484L4.60938 10.9648C4.36458 11.2219 3.96875 11.2219 3.72656 10.9648L2.05729 9.21484C1.8125 8.95781 1.8125 8.54219 2.05729 8.28789C2.30208 8.03359 2.69792 8.03086 2.9401 8.28789L4.16406 9.57305L7.05729 6.53516C7.30208 6.27812 7.69792 6.27812 7.9401 6.53516C8.18229 6.79219 8.1849 7.20781 7.9401 7.46211L7.94271 7.46484Z" fill="#0076CA"/>
</g>
<defs>
<clipPath id="clip0_44_2010">
<rect width="10" height="14" fill="white"/>
</clipPath>
</defs>
</svg>
